<?xml version="1.0" encoding="UTF-8"?>
<!DOCTYPE svg PUBLIC "-//W3C//DTD SVG 1.1//EN" "http://www.w3.org/Graphics/SVG/1.1/DTD/svg11.dtd">
<svg xmlns="http://www.w3.org/2000/svg" version="1.1" width="325px" height="225px" style="shape-rendering:geometricPrecision; text-rendering:geometricPrecision; image-rendering:optimizeQuality; fill-rule:evenodd; clip-rule:evenodd" xmlns:xlink="http://www.w3.org/1999/xlink">
<g><path style="opacity:0.907" fill="#fefffe" d="M 141.5,25.5 C 176.226,24.9759 210.892,26.1426 245.5,29C 259.707,28.4192 271.874,32.9192 282,42.5C 286.427,48.7754 289.094,55.7754 290,63.5C 296.369,103.28 295.703,142.946 288,182.5C 284.535,193.965 277.035,201.465 265.5,205C 242.044,209.366 218.378,211.7 194.5,212C 152.907,213.776 111.574,211.443 70.5,205C 59.6667,200.833 52.1667,193.333 48,182.5C 41.0287,140.9 40.6954,99.2333 47,57.5C 50.367,45.1315 58.2003,36.9648 70.5,33C 94.1181,28.6987 117.785,26.1987 141.5,25.5 Z M 134.5,38.5 C 167.539,37.9856 200.539,38.8189 233.5,41C 242.874,42.0096 252.207,43.3429 261.5,45C 270.834,48.6689 276,55.5023 277,65.5C 283.546,105.047 282.546,144.38 274,183.5C 270.72,187.735 266.553,190.902 261.5,193C 204.662,201.779 147.662,202.779 90.5,196C 80.0595,195.639 71.2262,191.806 64,184.5C 59.5775,171.887 56.9108,158.887 56,145.5C 55.3333,126.833 55.3333,108.167 56,89.5C 56.9449,78.3788 58.6115,67.3788 61,56.5C 64.4487,50.3889 69.6153,46.5556 76.5,45C 95.8427,41.6325 115.176,39.4658 134.5,38.5 Z M 148.5,93.5 C 163.335,101.749 178.002,110.249 192.5,119C 178.114,127.613 163.614,136.113 149,144.5C 148.5,127.503 148.333,110.503 148.5,93.5 Z"/></g>
<g><path style="opacity:0.893" fill="#fefffe" d="M 135.5,72.5 C 138.016,72.7553 140.35,73.5886 142.5,75C 167.725,89.44 192.725,104.107 217.5,119C 192.725,133.893 167.725,148.56 142.5,163C 140.35,164.411 138.016,165.245 135.5,165.5C 135.5,134.5 135.5,103.5 135.5,72.5 Z M 148.5,93.5 C 148.333,110.503 148.5,127.503 149,144.5C 163.614,136.113 178.114,127.613 192.5,119C 178.002,110.249 163.335,101.749 148.5,93.5 Z"/></g>
</svg>
